<svg xmlns="http://www.w3.org/2000/svg" version="1.1" xmlns:xlink="http://www.w3.org/1999/xlink" xmlns:svgjs="http://svgjs.dev/svgjs" viewBox="0 0 13.01977479800133 2.3405582008424317"><g transform="matrix(1,0,0,1,2.4366392772180983,0.5851747738091989)"><rect width="13.01977479800133" height="13.01977479800133" x="-2.436639277218098" y="-5.9247830723886485" fill="#ffffff"></rect><g><path d=" M 0.724356 0.06087599999999993 Q 0.838584 0.12175199999999997 0.900144 0.23119199999999995 Q 0.961704 0.34063199999999993 0.961704 0.48153599999999996 Q 0.961704 0.621072 0.89946 0.7305119999999999 Q 0.8372160000000001 0.8399519999999999 0.7229880000000001 0.902196 Q 0.6087600000000001 0.96444 0.45828 0.96444 L 0.07660800000000001 0.96444 L 0.07660800000000001 -1.1102230246251565e-16 L 0.45828 -1.1102230246251565e-16 Q 0.610128 -1.1102230246251565e-16 0.724356 0.06087599999999993 M 0.62244 0.66348 Q 0.6894720000000001 0.5991839999999999 0.6894720000000001 0.48153599999999996 Q 0.6894720000000001 0.36251999999999995 0.62244 0.2975399999999999 Q 0.555408 0.23255999999999988 0.43776000000000004 0.23255999999999988 L 0.34473600000000004 0.23255999999999988 L 0.34473600000000004 0.727776 L 0.43776000000000004 0.727776 Q 0.555408 0.727776 0.62244 0.66348 M 1.8098439609375003 0.634752 L 1.3023159609375003 0.634752 Q 1.3064199609375002 0.69768 1.3371999609375003 0.7284599999999999 Q 1.3679799609375003 0.7592399999999999 1.4158599609375004 0.7592399999999999 Q 1.4828919609375002 0.7592399999999999 1.5116199609375003 0.6990479999999999 L 1.7975319609375005 0.6990479999999999 Q 1.7797479609375002 0.778392 1.7284479609375003 0.8406359999999999 Q 1.6771479609375004 0.9028799999999999 1.5991719609375004 0.938448 Q 1.5211959609375003 0.974016 1.4268039609375003 0.974016 Q 1.3132599609375002 0.974016 1.2250239609375004 0.926136 Q 1.1367879609375002 0.8782559999999999 1.0868559609375004 0.7893359999999999 Q 1.0369239609375003 0.7004159999999999 1.0369239609375003 0.5800319999999999 Q 1.0369239609375003 0.45964799999999995 1.0861719609375002 0.37141199999999996 Q 1.1354199609375004 0.2831759999999999 1.2236559609375004 0.23529599999999995 Q 1.3118919609375004 0.18741599999999992 1.4268039609375003 0.18741599999999992 Q 1.5403479609375004 0.18741599999999992 1.6278999609375004 0.2339279999999999 Q 1.7154519609375003 0.2804399999999999 1.7646999609375005 0.36730799999999997 Q 1.8139479609375004 0.4541759999999999 1.8139479609375004 0.5718239999999999 Q 1.8139479609375004 0.6032879999999999 1.8098439609375003 0.634752 M 1.5403479609375004 0.5047919999999999 Q 1.5403479609375004 0.45554399999999995 1.5075159609375004 0.4274999999999999 Q 1.4746839609375004 0.3994559999999999 1.4254359609375002 0.3994559999999999 Q 1.3761879609375003 0.3994559999999999 1.3447239609375004 0.42613199999999996 Q 1.3132599609375002 0.452808 1.3036839609375004 0.5047919999999999 L 1.5403479609375004 0.5047919999999999 M 2.3748660351562503 0.735984 L 2.3748660351562503 0.96444 L 2.2585860351562506 0.96444 Q 1.9644660351562504 0.96444 1.9644660351562504 0.6730559999999999 L 1.9644660351562504 0.4199759999999999 L 1.8700740351562504 0.4199759999999999 L 1.8700740351562504 0.19699199999999994 L 1.9644660351562504 0.19699199999999994 L 1.9644660351562504 0.010943999999999954 L 2.2339620351562504 0.010943999999999954 L 2.2339620351562504 0.19699199999999994 L 2.3734980351562505 0.19699199999999994 L 2.3734980351562505 0.4199759999999999 L 2.2339620351562504 0.4199759999999999 L 2.2339620351562504 0.67716 Q 2.2339620351562504 0.7086239999999999 2.2483260351562504 0.722304 Q 2.2626900351562504 0.735984 2.2968900351562502 0.735984 L 2.3748660351562503 0.735984 M 2.6478100898437504 0.926136 Q 2.5568380898437506 0.8782559999999999 2.5048540898437506 0.7893359999999999 Q 2.4528700898437505 0.7004159999999999 2.4528700898437505 0.5800319999999999 Q 2.4528700898437505 0.461016 2.5055380898437507 0.372096 Q 2.5582060898437504 0.2831759999999999 2.6491780898437507 0.23529599999999995 Q 2.7401500898437505 0.18741599999999992 2.8550620898437504 0.18741599999999992 Q 2.9699740898437508 0.18741599999999992 3.0609460898437506 0.23529599999999995 Q 3.1519180898437504 0.2831759999999999 3.2045860898437506 0.372096 Q 3.2572540898437508 0.461016 3.2572540898437508 0.5800319999999999 Q 3.2572540898437508 0.6990479999999999 3.2045860898437506 0.7886519999999999 Q 3.1519180898437504 0.8782559999999999 3.0602620898437505 0.926136 Q 2.9686060898437505 0.974016 2.8536940898437506 0.974016 Q 2.7387820898437507 0.974016 2.6478100898437504 0.926136 M 2.9474020898437505 0.699732 Q 2.9850220898437505 0.6580079999999999 2.9850220898437505 0.5800319999999999 Q 2.9850220898437505 0.502056 2.9474020898437505 0.461016 Q 2.9097820898437505 0.4199759999999999 2.8550620898437504 0.4199759999999999 Q 2.8003420898437508 0.4199759999999999 2.7634060898437505 0.461016 Q 2.7264700898437506 0.502056 2.7264700898437506 0.5800319999999999 Q 2.7264700898437506 0.659376 2.7620380898437507 0.7004159999999999 Q 2.7976060898437507 0.7414559999999999 2.8536940898437506 0.7414559999999999 Q 2.9097820898437505 0.7414559999999999 2.9474020898437505 0.699732 M 3.8441073867187505 0.96444 L 3.7059393867187507 0.771552 L 3.5964993867187505 0.96444 L 3.3023793867187505 0.96444 L 3.558195386718751 0.566352 L 3.2914353867187507 0.19699199999999994 L 3.5923953867187506 0.19699199999999994 L 3.7305633867187504 0.3898799999999999 L 3.841371386718751 0.19699199999999994 L 4.13549138671875 0.19699199999999994 L 3.874203386718751 0.5882399999999999 L 4.14506738671875 0.96444 L 3.8441073867187505 0.96444 M 4.8707786953125005 0.06087599999999993 Q 4.9850066953125 0.12175199999999997 5.0465666953125 0.23119199999999995 Q 5.1081266953125 0.34063199999999993 5.1081266953125 0.48153599999999996 Q 5.1081266953125 0.621072 5.045882695312501 0.7305119999999999 Q 4.9836386953125 0.8399519999999999 4.8694106953125 0.902196 Q 4.7551826953125005 0.96444 4.6047026953125005 0.96444 L 4.2230306953125005 0.96444 L 4.2230306953125005 -1.1102230246251565e-16 L 4.6047026953125005 -1.1102230246251565e-16 Q 4.7565506953125 -1.1102230246251565e-16 4.8707786953125005 0.06087599999999993 M 4.7688626953125 0.66348 Q 4.835894695312501 0.5991839999999999 4.835894695312501 0.48153599999999996 Q 4.835894695312501 0.36251999999999995 4.7688626953125 0.2975399999999999 Q 4.7018306953125 0.23255999999999988 4.5841826953125 0.23255999999999988 L 4.4911586953125004 0.23255999999999988 L 4.4911586953125004 0.727776 L 4.5841826953125 0.727776 Q 4.7018306953125 0.727776 4.7688626953125 0.66348 M 6.05339465625 0.19699199999999994 L 5.566386656250001 1.329696 L 5.275002656250001 1.329696 L 5.458314656250001 0.931608 L 5.14367465625 0.19699199999999994 L 5.44189865625 0.19699199999999994 L 5.6033226562500005 0.6320159999999999 L 5.759274656250001 0.19699199999999994 L 6.05339465625 0.19699199999999994 M 6.834562734375 0.27838799999999997 Q 6.912538734375 0.36662399999999995 6.912538734375 0.517104 L 6.912538734375 0.96444 L 6.6444107343750005 0.96444 L 6.6444107343750005 0.5526719999999999 Q 6.6444107343750005 0.48700799999999994 6.610210734375 0.4493879999999999 Q 6.576010734375 0.4117679999999999 6.518554734375001 0.4117679999999999 Q 6.458362734375 0.4117679999999999 6.424162734375001 0.4493879999999999 Q 6.3899627343750005 0.48700799999999994 6.3899627343750005 0.5526719999999999 L 6.3899627343750005 0.96444 L 6.121834734375001 0.96444 L 6.121834734375001 0.19699199999999994 L 6.3899627343750005 0.19699199999999994 L 6.3899627343750005 0.3064319999999999 Q 6.425530734375 0.2544479999999999 6.485722734375001 0.22229999999999994 Q 6.545914734375001 0.19015199999999988 6.623890734375 0.19015199999999988 Q 6.756586734375 0.19015199999999988 6.834562734375 0.27838799999999997 M 7.05819533203125 0.372096 Q 7.101287332031251 0.2831759999999999 7.17584333203125 0.23529599999999995 Q 7.25039933203125 0.18741599999999992 7.342055332031251 0.18741599999999992 Q 7.421399332031251 0.18741599999999992 7.478855332031251 0.21887999999999996 Q 7.53631133203125 0.2503439999999999 7.567775332031251 0.30369599999999997 L 7.567775332031251 0.19699199999999994 L 7.835903332031251 0.19699199999999994 L 7.835903332031251 0.96444 L 7.567775332031251 0.96444 L 7.567775332031251 0.8577359999999999 Q 7.53631133203125 0.911088 7.47817133203125 0.942552 Q 7.42003133203125 0.974016 7.342055332031251 0.974016 Q 7.25039933203125 0.974016 7.17584333203125 0.926136 Q 7.101287332031251 0.8782559999999999 7.05819533203125 0.7886519999999999 Q 7.01510333203125 0.6990479999999999 7.01510333203125 0.5800319999999999 Q 7.01510333203125 0.461016 7.05819533203125 0.372096 M 7.527419332031251 0.46375199999999994 Q 7.4870633320312505 0.42134399999999994 7.42823933203125 0.42134399999999994 Q 7.36804733203125 0.42134399999999994 7.328375332031251 0.4630679999999999 Q 7.28870333203125 0.5047919999999999 7.28870333203125 0.5800319999999999 Q 7.28870333203125 0.6539039999999999 7.328375332031251 0.696996 Q 7.36804733203125 0.740088 7.42823933203125 0.740088 Q 7.4870633320312505 0.740088 7.527419332031251 0.69768 Q 7.567775332031251 0.655272 7.567775332031251 0.5800319999999999 Q 7.567775332031251 0.5061599999999999 7.527419332031251 0.46375199999999994 M 8.129329312500001 0.939132 Q 8.0479333125 0.9042479999999999 8.0007373125 0.843372 Q 7.9535413125000005 0.782496 7.9480693125 0.705888 L 8.2079893125 0.705888 Q 8.2134613125 0.7428239999999999 8.2421893125 0.7633439999999999 Q 8.2709173125 0.7838639999999999 8.3133253125 0.7838639999999999 Q 8.3461573125 0.7838639999999999 8.3653093125 0.770184 Q 8.384461312500001 0.756504 8.384461312500001 0.7346159999999999 Q 8.384461312500001 0.705888 8.352997312500001 0.6922079999999999 Q 8.3215333125 0.678528 8.249029312500001 0.6621119999999999 Q 8.1669493125 0.6456959999999999 8.1122293125 0.625176 Q 8.0575093125 0.604656 8.0171533125 0.558144 Q 7.9767973125000005 0.5116319999999999 7.9767973125000005 0.4322879999999999 Q 7.9767973125000005 0.3638879999999999 8.013733312500001 0.308484 Q 8.0506693125 0.25307999999999997 8.1224893125 0.2202479999999999 Q 8.1943093125 0.18741599999999992 8.295541312500001 0.18741599999999992 Q 8.446021312500001 0.18741599999999992 8.5322053125 0.26128799999999996 Q 8.6183893125 0.3351599999999999 8.6320693125 0.45554399999999995 L 8.3899333125 0.45554399999999995 Q 8.3830933125 0.418608 8.3577853125 0.3987719999999999 Q 8.3324773125 0.37893599999999994 8.2900693125 0.37893599999999994 Q 8.257237312500001 0.37893599999999994 8.2401373125 0.39124799999999993 Q 8.2230373125 0.4035599999999999 8.2230373125 0.42544799999999994 Q 8.2230373125 0.452808 8.2545013125 0.4671719999999999 Q 8.2859653125 0.48153599999999996 8.3557333125 0.4965839999999999 Q 8.4391813125 0.5143679999999999 8.4945853125 0.536256 Q 8.549989312500001 0.558144 8.591713312500001 0.606708 Q 8.6334373125 0.655272 8.6334373125 0.7387199999999999 Q 8.6334373125 0.805752 8.5944493125 0.859104 Q 8.5554613125 0.9124559999999999 8.483641312500001 0.943236 Q 8.4118213125 0.974016 8.314693312500001 0.974016 Q 8.210725312500001 0.974016 8.129329312500001 0.939132 M 9.2161959609375 0.735984 L 9.2161959609375 0.96444 L 9.0999159609375 0.96444 Q 8.8057959609375 0.96444 8.8057959609375 0.6730559999999999 L 8.8057959609375 0.4199759999999999 L 8.7114039609375 0.4199759999999999 L 8.7114039609375 0.19699199999999994 L 8.8057959609375 0.19699199999999994 L 8.8057959609375 0.010943999999999954 L 9.0752919609375 0.010943999999999954 L 9.0752919609375 0.19699199999999994 L 9.2148279609375 0.19699199999999994 L 9.2148279609375 0.4199759999999999 L 9.0752919609375 0.4199759999999999 L 9.0752919609375 0.67716 Q 9.0752919609375 0.7086239999999999 9.089655960937499 0.722304 Q 9.1040199609375 0.735984 9.1382199609375 0.735984 L 9.2161959609375 0.735984 M 10.164248015624999 0.19699199999999994 L 9.677240015625 1.329696 L 9.385856015624999 1.329696 L 9.569168015625 0.931608 L 9.254528015624999 0.19699199999999994 L 9.552752015625 0.19699199999999994 L 9.714176015624998 0.6320159999999999 L 9.870128015625 0.19699199999999994 L 10.164248015624999 0.19699199999999994" fill="#000000" fill-rule="nonzero"></path></g><g></g><g clip-path="url(#SvgjsClipPath1002)"><g clip-path="url(#SvgjsClipPath1000429b43cf-e258-4eea-8354-d409637b5280)"><path d=" M -1.4213924046664417 0.45814458747646436 L -1.3541671601219591 0.11012009138334844 L -1.285937998761824 0.5022797452609227 L -1.216184371126067 0.24167037633820365 L -1.153420979095599 0.5056633167507169 L -1.1338631922425026 0.4575124917036456 L -1.0334715106771808 0.45535592965520544 L -0.9569507400618353 0.14075814531291325 L -0.8958977248284061 0.5569374385575977 L -0.8204180531329974 0.2872928182939998 L -0.7554609169498057 0.4533852781281823 L -0.400148728417133 0.4533852781281823 C -0.49022450333196055 0.300704911716446 -0.6062497850515536 0.16491217336725983 -0.7430049120148496 0.05211600870116226 C -0.9685143744939895 -0.12847747180356667 -1.19015689812765 -0.20332504772615667 -1.4153689037725223 -0.13379451271610038 C -1.7035302119692797 -0.04485491927008184 -1.6839724251161836 0.2574355885543875 -1.6565320321549957 0.326743030938743 C -1.6390818844111037 0.3725974978631734 -1.6127204911185853 0.41454067348056023 -1.5789701626197137 0.45015043505552177 C -1.7270493172671348 0.4329836600094823 -1.8703321846043965 0.3869785288411576 -2.0007267715069155 0.314733211255188 C -2.030249362307977 0.29919109166470476 -1.9887169518233607 0.40337534786693874 -1.9653294082290689 0.45818176958074786 Z" fill="#a4c868" transform="matrix(1,0,0,1,0,0)" fill-rule="nonzero"></path></g><g clip-path="url(#SvgjsClipPath1000429b43cf-e258-4eea-8354-d409637b5280)"><path d=" M -0.7832359488495453 0.49409968231856316 L -0.8138740027791103 0.41560826017619457 L -0.908242183450513 0.7527383997142592 L -0.9666924513841002 0.3540346954827972 L -1.0011230799505773 0.49532669175991695 L -1.1061625245513311 0.4975948001212076 L -1.163608875669265 0.6388867963983274 L -1.2185268436959245 0.4080231109023703 L -1.2943783364341677 0.6915738381679798 L -1.3562865400661162 0.3360013749053228 L -1.387742600289917 0.4988961737711285 L -1.9586366294580477 0.4988961737711285 C -1.981317713070954 0.5514716692279304 -2.0276094329038523 0.664988633605311 -1.9968226505571536 0.6488144182420092 C -1.865447331711376 0.5759105817321455 -1.7209241375545181 0.5297708316563595 -1.5716081059715907 0.5130625555031242 C -1.6058417098808229 0.5494631197985159 -1.633281264149753 0.591699129444221 -1.652627911205233 0.6377713332698236 C -1.6801054862707046 0.7070787756541794 -1.6996632731238008 1.0093321013743652 -1.411539147031327 1.098271694820384 C -1.186252777177888 1.16780222983044 -0.9645730714399436 1.0929174718035668 -0.7391379731693708 0.9123611734031212 C -0.610748167078609 0.8095154729550913 -0.4574091690136508 0.579618522170504 -0.40014872841713345 0.49417404652713004 Z" fill="#67a97b" transform="matrix(1,0,0,1,0,0)" fill-rule="nonzero"></path></g></g></g><defs><clipPath id="SvgjsClipPath1002"><path d=" M -2.0109518501848656 -0.1594873467759661 h 1.6109518501848656 v 1.2834146935519322 h -1.6109518501848656 Z"></path></clipPath><clipPath id="SvgjsClipPath1000429b43cf-e258-4eea-8354-d409637b5280"><path d=" M -2.0109518501848656 -0.1594873467759661 L -0.3999999999999999 -0.1594873467759661 L -0.3999999999999999 1.123927346775966 L -2.0109518501848656 1.123927346775966 Z"></path></clipPath></defs></svg>